<svg width="53" height="36" viewBox="0 0 53 36" fill="none" xmlns="http://www.w3.org/2000/svg">
<path d="M52.0038 17.0067C52.0038 7.63788 40.361 -1.52588e-05 26.0019 -1.52588e-05C11.6408 -1.52588e-05 0.00196593 7.63788 0.00196593 17.0067C0.00196593 17.2487 0 17.9194 0 18.004C0 27.9413 10.1734 35.9923 25.9979 35.9923C41.9228 35.9923 52.0038 27.9453 52.0038 18.004V17.0067Z" fill="#0A0080"/>
<path d="M51.0069 16.9991C51.0069 25.831 39.8166 32.9929 26.0062 32.9929C12.1998 32.9929 1.00749 25.831 1.00749 16.9991C1.00749 8.16528 12.1998 1.0034 26.0062 1.0034C39.8166 1.0034 51.0069 8.16528 51.0069 16.9991Z" fill="#00BCFF"/>
<path d="M17.706 11.9527C17.6923 11.9783 17.4424 12.2379 17.6037 12.4425C17.9991 12.948 19.2187 13.2352 20.452 12.9598C21.1857 12.7946 22.1239 12.0471 23.0347 11.3252C24.0221 10.5404 25.0036 9.7536 25.9871 9.44282C27.0296 9.11039 27.6965 9.25202 28.139 9.38381C28.6229 9.53133 29.1934 9.84802 30.1001 10.5306C31.8114 11.817 38.6901 17.8203 39.8762 18.8589C40.8361 18.4261 45.0888 16.5929 50.8698 15.3222C50.3682 12.2399 48.4917 9.41921 45.6493 7.10995C41.6878 8.77404 36.845 9.64345 32.1104 7.32828C32.0868 7.32238 29.5238 6.10677 26.9942 6.16775C23.2373 6.2543 21.6086 7.88101 19.8855 9.60215L17.706 11.9527Z" fill="white"/>
<path d="M39.5986 19.5115C39.518 19.4407 31.5123 12.4323 29.6967 11.0691C28.6483 10.2823 28.0641 10.0817 27.4504 10.003C27.1298 9.96368 26.6911 10.0207 26.3803 10.1073C25.5385 10.3354 24.435 11.0731 23.4554 11.8481C22.4404 12.6585 21.4844 13.4178 20.5973 13.6184C19.4643 13.8721 18.0796 13.5712 17.4462 13.1443C17.1905 12.9732 17.0115 12.7726 16.9249 12.5719C16.6908 12.029 17.1216 11.5983 17.1905 11.5235L19.4014 9.13557C19.6571 8.87986 19.9167 8.62218 20.1823 8.36844C19.4702 8.46286 18.8113 8.64579 18.1681 8.82282C17.3675 9.04903 16.5984 9.26146 15.8175 9.26146C15.4929 9.26146 13.7502 8.97821 13.4197 8.88773C11.4212 8.33697 9.66469 7.80784 7.04464 6.5824C3.90333 8.92117 1.80256 11.8461 1.19672 15.0661C1.64717 15.1861 2.37299 15.4005 2.67788 15.4674C9.78861 17.0488 12.0015 18.6775 12.4047 19.0178C12.8394 18.5339 13.465 18.2271 14.1652 18.2271C14.954 18.231 15.6621 18.6244 16.0929 19.2342C16.5 18.9116 17.0606 18.6402 17.7865 18.6402C18.115 18.6402 18.4572 18.6992 18.8034 18.8172C19.606 19.0906 20.019 19.6256 20.2334 20.1115C20.5029 19.9876 20.8334 19.8971 21.2228 19.899C21.6064 19.899 22.0057 19.9856 22.405 20.1587C23.715 20.7213 23.9196 22.0116 23.8016 22.9813C23.896 22.9695 23.9865 22.9656 24.0848 22.9656C25.6368 22.9676 26.9036 24.2284 26.9016 25.7843C26.9016 26.2663 26.7777 26.7167 26.5652 27.116C26.9881 27.352 28.0661 27.891 29.0102 27.771C29.7675 27.6746 30.0547 27.417 30.157 27.2714C30.2278 27.173 30.3025 27.055 30.2317 26.9704L28.2293 24.7418C28.2293 24.7418 27.8969 24.431 28.0051 24.3091C28.1192 24.1871 28.3237 24.3642 28.4693 24.4841C29.4862 25.3378 30.7353 26.6223 30.7353 26.6223C30.755 26.638 30.8395 26.7993 31.2979 26.8819C31.6952 26.9527 32.3974 26.9134 32.8852 26.5141C33.0072 26.4138 33.1311 26.2859 33.2334 26.1581C33.2255 26.164 33.2177 26.1718 33.2098 26.1758C33.7232 25.5188 33.1527 24.8539 33.1527 24.8539L30.812 22.226C30.812 22.226 30.4756 21.9152 30.5897 21.7893C30.692 21.6831 30.9084 21.8464 31.0539 21.9683C31.7955 22.586 32.8439 23.6403 33.8471 24.6238C34.0438 24.7654 34.927 25.3123 36.0954 24.5451C36.8035 24.0789 36.9451 23.5085 36.9274 23.0758C36.8763 22.5053 36.4317 22.0982 36.4317 22.0982L33.2334 18.8841C33.2334 18.8841 32.8951 18.5949 33.0131 18.4494C33.1114 18.3254 33.3298 18.5025 33.4753 18.6244C34.4942 19.4761 37.254 22.0057 37.254 22.0057C37.2913 22.0332 38.2473 22.7119 39.4216 21.9605C39.8445 21.691 40.114 21.2858 40.1356 20.8157C40.1769 19.9954 39.5986 19.5115 39.5986 19.5115Z" fill="white"/>
<path d="M24.0835 23.5878C23.5878 23.5819 23.0469 23.877 22.9741 23.8337C22.9347 23.8081 23.0056 23.6094 23.0528 23.4934C23.098 23.3813 23.7511 21.4162 22.1597 20.7317C20.9402 20.2085 20.1967 20.7966 19.941 21.0641C19.8721 21.133 19.8426 21.1271 19.8347 21.0386C19.8111 20.6845 19.6538 19.7266 18.6014 19.4059C17.0967 18.9476 16.1309 19.996 15.885 20.3737C15.7768 19.5181 15.0529 18.8532 14.1658 18.8512C13.202 18.8512 12.4191 19.6321 12.4191 20.596C12.4191 21.5578 13.2 22.3388 14.1639 22.3388C14.632 22.3407 15.0569 22.1539 15.3696 21.8529C15.3795 21.8627 15.3834 21.8785 15.3775 21.9119C15.3047 22.3427 15.171 23.9104 16.8134 24.5497C17.4724 24.8054 18.031 24.6146 18.4952 24.2881C18.6329 24.1917 18.6545 24.233 18.6349 24.3628C18.5759 24.766 18.6506 25.6296 19.8623 26.1193C20.7828 26.495 21.3277 26.1115 21.6837 25.781C21.8391 25.6394 21.8824 25.665 21.8922 25.8813C21.9335 27.0497 22.9033 27.9742 24.0815 27.9762C25.2932 27.9762 26.2767 26.9966 26.2767 25.7849C26.2767 24.5713 25.2952 23.6016 24.0835 23.5878Z" fill="white"/>
<path d="M24.0835 27.8194C22.9839 27.8194 22.0909 26.9638 22.0516 25.878C22.0476 25.7836 22.0378 25.5357 21.8293 25.5357C21.7427 25.5357 21.666 25.5869 21.5814 25.6636C21.3375 25.8898 21.0307 26.116 20.5822 26.116C20.3776 26.116 20.1573 26.0688 19.9233 25.9744C18.7627 25.5042 18.747 24.7056 18.7942 24.385C18.806 24.3004 18.8099 24.2119 18.7529 24.1431L18.6801 24.0801H18.6093C18.5503 24.0801 18.4873 24.1018 18.4067 24.1608C18.0703 24.3968 17.7477 24.5089 17.4212 24.5089C17.2403 24.5089 17.0573 24.4755 16.8705 24.4027C15.3441 23.8087 15.4641 22.3669 15.5388 21.9322C15.5486 21.8436 15.527 21.7768 15.4719 21.7296L15.3637 21.6391L15.2634 21.7374C14.9644 22.0266 14.575 22.182 14.1658 22.182C13.2925 22.182 12.5785 21.4699 12.5785 20.5946C12.5785 19.7193 13.2944 19.0092 14.1678 19.0092C14.9585 19.0092 15.6332 19.6032 15.7335 20.3959L15.7886 20.8208L16.0207 20.4608C16.0483 20.4176 16.6895 19.4478 17.8697 19.4478C18.092 19.4478 18.3241 19.4872 18.5562 19.558C19.4984 19.8432 19.6557 20.6949 19.6813 21.0529C19.699 21.2594 19.8446 21.2693 19.8741 21.2693C19.9528 21.2693 20.0157 21.2181 20.057 21.1729C20.234 20.986 20.6196 20.6792 21.2254 20.6792C21.5028 20.6811 21.7959 20.7441 22.0988 20.8759C23.5937 21.5171 22.9151 23.4173 22.9072 23.435C22.7794 23.7497 22.7754 23.8893 22.8954 23.968L22.9544 23.9975H22.9977C23.0646 23.9975 23.1472 23.968 23.2868 23.9208C23.4894 23.85 23.7963 23.7457 24.0835 23.7457H24.0855C25.2086 23.7595 26.1233 24.6722 26.1233 25.7855C26.1213 26.9067 25.2066 27.8194 24.0835 27.8194ZM39.9081 18.6748C37.4434 16.5209 31.743 11.5641 30.1969 10.4055C29.3157 9.74261 28.7138 9.39052 28.1867 9.23512C27.9487 9.16431 27.6202 9.0817 27.1973 9.0817C26.8058 9.0817 26.3849 9.15251 25.9423 9.29217C24.9431 9.60689 23.9517 10.3976 22.9879 11.1608L22.9406 11.2002C22.0437 11.9122 21.1192 12.6498 20.4189 12.8052C20.1121 12.8741 19.7974 12.9095 19.4846 12.9095C18.6998 12.9095 17.9956 12.6833 17.732 12.345C17.6868 12.2899 17.7163 12.2014 17.8166 12.0696L17.8304 12.0519L20 9.71311C21.6995 8.01558 23.3045 6.40853 27.0006 6.32395C27.0615 6.32198 27.1245 6.32002 27.1855 6.32002C29.4849 6.32395 31.7843 7.3527 32.042 7.47072C34.1998 8.52503 36.4245 9.06006 38.6629 9.06203C40.9958 9.06203 43.4015 8.48373 45.931 7.31926C45.6478 7.08125 45.3527 6.85111 45.0518 6.62294C42.8291 7.58677 40.7126 8.07459 38.6688 8.07459C36.5819 8.07065 34.4968 7.56907 32.4747 6.58163C32.3666 6.53245 29.8291 5.33258 27.1855 5.33258C27.1166 5.33258 27.0478 5.33258 26.9789 5.33455C23.875 5.40733 22.1263 6.51082 20.95 7.47465C19.8052 7.50415 18.8198 7.77954 17.9425 8.02541C17.1576 8.24179 16.483 8.43062 15.824 8.43062C15.5506 8.43062 15.0628 8.40701 15.0195 8.40505C14.2602 8.38144 10.4383 7.44514 7.39735 6.29248C7.08656 6.51278 6.78758 6.73899 6.49843 6.9711C9.67515 8.27129 13.5403 9.28036 14.7599 9.35708C15.0982 9.38265 15.4601 9.42002 15.822 9.42002C16.6285 9.42002 17.433 9.19382 18.2139 8.97744C18.6742 8.84566 19.1817 8.706 19.7148 8.60175C19.5731 8.74337 19.4315 8.88499 19.2879 9.02859L17.0829 11.4126C16.9118 11.5877 16.5321 12.0558 16.7819 12.6321C16.8803 12.8643 17.079 13.0865 17.3622 13.2754C17.8874 13.6294 18.8276 13.8674 19.701 13.8674C20.0314 13.8694 20.3481 13.836 20.6353 13.7691C21.5598 13.5645 22.5276 12.7915 23.5544 11.9752C24.3726 11.3241 25.5351 10.4999 26.4242 10.256C26.674 10.1891 26.9809 10.1478 27.2268 10.1478C27.2995 10.1498 27.3684 10.1498 27.4313 10.1576C28.0195 10.2344 28.5899 10.433 29.6049 11.1962C31.4145 12.5554 39.4222 19.5619 39.5009 19.6308C39.5068 19.6347 40.0162 20.0733 39.9808 20.809C39.9612 21.2162 39.735 21.5781 39.3416 21.8299C38.9993 22.0462 38.6452 22.1564 38.2912 22.1564C37.7542 22.1564 37.3864 21.9046 37.3628 21.8869C37.3313 21.8633 34.5893 19.3475 33.5782 18.5037C33.4189 18.3699 33.2635 18.2499 33.1062 18.2499C33.0196 18.2499 32.9449 18.2853 32.8937 18.3483C32.7344 18.545 32.9134 18.8164 33.1239 18.9954L36.3301 22.2134C36.334 22.2174 36.7294 22.5891 36.7707 23.0848C36.7963 23.6179 36.5405 24.0644 36.0095 24.4126C35.6318 24.6624 35.2502 24.7883 34.8745 24.7883C34.3808 24.7883 34.0385 24.564 33.9598 24.5089L33.5015 24.0585C32.6596 23.2304 31.7922 22.3747 31.1588 21.8456C31.0034 21.7158 30.8382 21.5978 30.6808 21.5978C30.6021 21.5978 30.5313 21.6292 30.4782 21.6843C30.4054 21.765 30.3543 21.9086 30.5353 22.1485C30.61 22.2489 30.6966 22.3295 30.6966 22.3295L33.0373 24.9555C33.057 24.981 33.5173 25.5298 33.0884 26.0766L33.0058 26.1829C32.935 26.2596 32.8603 26.3284 32.7895 26.3914C32.3902 26.7199 31.8571 26.7533 31.6466 26.7533C31.5325 26.7533 31.4224 26.7435 31.3299 26.7258C31.0978 26.6864 30.9424 26.6215 30.8697 26.533L30.8421 26.5015C30.7123 26.3717 29.5341 25.1659 28.5584 24.3535C28.4306 24.2473 28.2693 24.1096 28.104 24.1096C28.0214 24.1096 27.9487 24.1431 27.8936 24.2041C27.6988 24.4165 27.988 24.7332 28.1119 24.8473L30.1084 27.0464C30.1065 27.0661 30.0789 27.1133 30.0297 27.1821C29.9589 27.2824 29.717 27.5244 28.9951 27.6148C28.9086 27.6247 28.8181 27.6286 28.7296 27.6286C27.9821 27.6286 27.1874 27.2667 26.7763 27.0484C26.9651 26.6549 27.0615 26.2222 27.0615 25.7855C27.0615 24.1431 25.7279 22.8075 24.0855 22.8075C24.05 22.8075 24.0146 22.8075 23.9773 22.8094C24.0343 22.06 23.9281 20.6398 22.4705 20.0163C22.0516 19.8334 21.6326 19.7429 21.2254 19.7429C20.9087 19.7429 20.6019 19.796 20.3127 19.9081C20.0137 19.32 19.5122 18.8931 18.8571 18.6709C18.4952 18.545 18.1372 18.482 17.7891 18.482C17.1812 18.482 16.6246 18.6591 16.1269 19.0131C15.6489 18.4211 14.9271 18.069 14.1678 18.069C13.5049 18.069 12.8656 18.3345 12.3916 18.8046C11.772 18.3286 9.30731 16.7648 2.71587 15.2679C2.39721 15.1971 1.66549 14.9867 1.21504 14.8549C1.14029 15.2109 1.08522 15.5709 1.04588 15.9348C1.04588 15.9348 2.26149 16.2259 2.50147 16.2809C9.23454 17.7778 11.4612 19.3318 11.8369 19.6249C11.709 19.9317 11.6441 20.2622 11.6422 20.5946C11.6422 21.9872 12.7732 23.1183 14.1658 23.1202C14.3212 23.1202 14.4746 23.1065 14.6281 23.0789C14.8385 24.1018 15.5073 24.8787 16.5321 25.2761C16.8292 25.3921 17.134 25.4511 17.4311 25.4511C17.6238 25.4511 17.8146 25.4275 18.0054 25.3803C18.1943 25.8583 18.6211 26.4582 19.5712 26.8438C19.9056 26.9775 20.238 27.0464 20.5625 27.0464C20.8281 27.0464 21.0877 27.0011 21.3336 26.9107C21.79 28.022 22.8738 28.7577 24.0835 28.7577C24.8841 28.7596 25.6532 28.4331 26.2157 27.8548C26.6957 28.1204 27.7106 28.6023 28.7335 28.6043C28.8672 28.6043 28.9912 28.5984 29.1171 28.5826C30.134 28.4528 30.6061 28.0555 30.8244 27.7466C30.8638 27.6916 30.8992 27.6326 30.9287 27.5755C31.1706 27.6444 31.4322 27.6994 31.7371 27.6994C32.2918 27.6994 32.8249 27.5126 33.3658 27.1192C33.893 26.7356 34.2706 26.1888 34.3237 25.7226C34.3257 25.7167 34.3277 25.7088 34.3277 25.701C34.5067 25.7383 34.6916 25.756 34.8706 25.756C35.4449 25.756 36.0075 25.579 36.5445 25.2269C37.5811 24.5463 37.7621 23.6592 37.7463 23.077C37.9273 23.1124 38.1122 23.134 38.2971 23.134C38.8341 23.134 39.3612 22.9727 39.8628 22.6521C40.508 22.241 40.8935 21.6115 40.9525 20.8798C40.9939 20.3822 40.8699 19.8806 40.6064 19.4478C42.3452 18.6984 46.3166 17.2507 50.9961 16.1964C50.9666 15.8325 50.9154 15.4745 50.8486 15.1184C45.1895 16.3754 40.9663 18.2007 39.9081 18.6748Z" fill="#0A0080"/>
</svg>
